<svg width="222" height="37" viewBox="0 0 222 37" fill="none" xmlns="http://www.w3.org/2000/svg">
<path d="M0.0292969 3.26758C0.0292969 1.52148 1.00195 0.648438 2.94727 0.648438C4.89258 0.648438 5.86523 1.52148 5.86523 3.26758C5.86523 4.09961 5.61914 4.75 5.12695 5.21875C4.64648 5.67578 3.91992 5.9043 2.94727 5.9043C1.00195 5.9043 0.0292969 5.02539 0.0292969 3.26758ZM5.61914 28H0.257812V8.34766H5.61914V28ZM28.8574 28H23.4961V16.5215C23.4961 15.1035 23.2559 14.043 22.7754 13.3398C22.3066 12.625 21.5625 12.2676 20.543 12.2676C19.1719 12.2676 18.1758 12.7715 17.5547 13.7793C16.9336 14.7871 16.623 16.4453 16.623 18.7539V28H11.2617V8.34766H15.3574L16.0781 10.8613H16.377C16.9043 9.95898 17.666 9.25586 18.6621 8.75195C19.6582 8.23633 20.8008 7.97852 22.0898 7.97852C25.0312 7.97852 27.0234 8.93945 28.0664 10.8613H28.541C29.0684 9.94727 29.8418 9.23828 30.8613 8.73438C31.8926 8.23047 33.0527 7.97852 34.3418 7.97852C36.5684 7.97852 38.25 8.55273 39.3867 9.70117C40.5352 10.8379 41.1094 12.666 41.1094 15.1855V28H35.7305V16.5215C35.7305 15.1035 35.4902 14.043 35.0098 13.3398C34.541 12.625 33.7969 12.2676 32.7773 12.2676C31.4648 12.2676 30.4805 12.7363 29.8242 13.6738C29.1797 14.6113 28.8574 16.0996 28.8574 18.1387V28ZM59.1094 28L58.0723 25.3281H57.9316C57.0293 26.4648 56.0977 27.2559 55.1367 27.7012C54.1875 28.1348 52.9453 28.3516 51.4102 28.3516C49.5234 28.3516 48.0352 27.8125 46.9453 26.7344C45.8672 25.6562 45.3281 24.1211 45.3281 22.1289C45.3281 20.043 46.0547 18.5078 47.5078 17.5234C48.9727 16.5273 51.1758 15.9766 54.1172 15.8711L57.5273 15.7656V14.9043C57.5273 12.9121 56.5078 11.916 54.4688 11.916C52.8984 11.916 51.0527 12.3906 48.9316 13.3398L47.1562 9.71875C49.418 8.53516 51.9258 7.94336 54.6797 7.94336C57.3164 7.94336 59.3379 8.51758 60.7441 9.66602C62.1504 10.8145 62.8535 12.5605 62.8535 14.9043V28H59.1094ZM57.5273 18.8945L55.4531 18.9648C53.8945 19.0117 52.7344 19.293 51.9727 19.8086C51.2109 20.3242 50.8301 21.1094 50.8301 22.1641C50.8301 23.6758 51.6973 24.4316 53.4316 24.4316C54.6738 24.4316 55.6641 24.0742 56.4023 23.3594C57.1523 22.6445 57.5273 21.6953 57.5273 20.5117V18.8945ZM85.4941 8.34766V11.0723L82.418 11.8633C82.9805 12.7422 83.2617 13.7266 83.2617 14.8164C83.2617 16.9258 82.5234 18.5723 81.0469 19.7559C79.582 20.9277 77.543 21.5137 74.9297 21.5137L73.9629 21.4609L73.1719 21.373C72.6211 21.7949 72.3457 22.2637 72.3457 22.7793C72.3457 23.5527 73.3301 23.9395 75.2988 23.9395H78.6387C80.7949 23.9395 82.4355 24.4023 83.5605 25.3281C84.6973 26.2539 85.2656 27.6133 85.2656 29.4062C85.2656 31.7031 84.3047 33.4844 82.3828 34.75C80.4727 36.0156 77.7246 36.6484 74.1387 36.6484C71.3965 36.6484 69.2988 36.168 67.8457 35.207C66.4043 34.2578 65.6836 32.9219 65.6836 31.1992C65.6836 30.0156 66.0527 29.0254 66.791 28.2285C67.5293 27.4316 68.6133 26.8633 70.043 26.5234C69.4922 26.2891 69.0117 25.9082 68.6016 25.3809C68.1914 24.8418 67.9863 24.2734 67.9863 23.6758C67.9863 22.9258 68.2031 22.3047 68.6367 21.8125C69.0703 21.3086 69.6973 20.8164 70.5176 20.3359C69.4863 19.8906 68.666 19.1758 68.0566 18.1914C67.459 17.207 67.1602 16.0469 67.1602 14.7109C67.1602 12.5664 67.8574 10.9082 69.252 9.73633C70.6465 8.56445 72.6387 7.97852 75.2285 7.97852C75.7793 7.97852 76.4297 8.03125 77.1797 8.13672C77.9414 8.23047 78.4277 8.30078 78.6387 8.34766H85.4941ZM70.3242 30.7773C70.3242 31.5156 70.6758 32.0957 71.3789 32.5176C72.0938 32.9395 73.0898 33.1504 74.3672 33.1504C76.2891 33.1504 77.7949 32.8867 78.8848 32.3594C79.9746 31.832 80.5195 31.1113 80.5195 30.1973C80.5195 29.459 80.1973 28.9492 79.5527 28.668C78.9082 28.3867 77.9121 28.2461 76.5645 28.2461H73.7871C72.8027 28.2461 71.9766 28.4746 71.3086 28.9316C70.6523 29.4004 70.3242 30.0156 70.3242 30.7773ZM72.2754 14.7812C72.2754 15.8477 72.5156 16.6914 72.9961 17.3125C73.4883 17.9336 74.2324 18.2441 75.2285 18.2441C76.2363 18.2441 76.9746 17.9336 77.4434 17.3125C77.9121 16.6914 78.1465 15.8477 78.1465 14.7812C78.1465 12.4141 77.1738 11.2305 75.2285 11.2305C73.2598 11.2305 72.2754 12.4141 72.2754 14.7812ZM96.8848 11.793C95.748 11.793 94.8574 12.1562 94.2129 12.8828C93.5684 13.5977 93.1992 14.6172 93.1055 15.9414H100.629C100.605 14.6172 100.26 13.5977 99.5918 12.8828C98.9238 12.1562 98.0215 11.793 96.8848 11.793ZM97.6406 28.3516C94.4766 28.3516 92.0039 27.4785 90.2227 25.7324C88.4414 23.9863 87.5508 21.5137 87.5508 18.3145C87.5508 15.0215 88.3711 12.4785 90.0117 10.6855C91.6641 8.88086 93.9434 7.97852 96.8496 7.97852C99.627 7.97852 101.789 8.76953 103.336 10.3516C104.883 11.9336 105.656 14.1191 105.656 16.9082V19.5098H92.9824C93.041 21.0332 93.4922 22.2227 94.3359 23.0781C95.1797 23.9336 96.3633 24.3613 97.8867 24.3613C99.0703 24.3613 100.189 24.2383 101.244 23.9922C102.299 23.7461 103.4 23.3535 104.549 22.8145V26.9629C103.611 27.4316 102.609 27.7773 101.543 28C100.477 28.2344 99.1758 28.3516 97.6406 28.3516ZM131.602 23.0254C131.602 24.7363 130.951 26.0547 129.65 26.9805C128.35 27.8945 126.504 28.3516 124.113 28.3516C121.559 28.3516 119.531 27.959 118.031 27.1738V25.293C119.953 26.2539 121.98 26.7344 124.113 26.7344C126 26.7344 127.43 26.4238 128.402 25.8027C129.387 25.1699 129.879 24.332 129.879 23.2891C129.879 22.3281 129.486 21.5195 128.701 20.8633C127.928 20.207 126.65 19.5625 124.869 18.9297C122.959 18.2383 121.617 17.6465 120.844 17.1543C120.07 16.6504 119.484 16.0879 119.086 15.4668C118.699 14.834 118.506 14.0664 118.506 13.1641C118.506 11.7344 119.104 10.6035 120.299 9.77148C121.506 8.93945 123.188 8.52344 125.344 8.52344C127.406 8.52344 129.363 8.91016 131.215 9.68359L130.564 11.2656C128.689 10.4922 126.949 10.1055 125.344 10.1055C123.785 10.1055 122.549 10.3633 121.635 10.8789C120.721 11.3945 120.264 12.1094 120.264 13.0234C120.264 14.0195 120.615 14.8164 121.318 15.4141C122.033 16.0117 123.422 16.6797 125.484 17.418C127.207 18.0391 128.461 18.6016 129.246 19.1055C130.031 19.5977 130.617 20.1602 131.004 20.793C131.402 21.4258 131.602 22.1699 131.602 23.0254ZM144.24 28.3516C141.463 28.3516 139.295 27.4961 137.736 25.7852C136.189 24.0742 135.416 21.6777 135.416 18.5957C135.416 15.5488 136.166 13.1113 137.666 11.2832C139.166 9.44336 141.188 8.52344 143.73 8.52344C145.98 8.52344 147.756 9.30859 149.057 10.8789C150.357 12.4492 151.008 14.582 151.008 17.2773V18.6836H137.244C137.268 21.3086 137.877 23.3125 139.072 24.6953C140.279 26.0781 142.002 26.7695 144.24 26.7695C145.33 26.7695 146.285 26.6934 147.105 26.541C147.938 26.3887 148.986 26.0605 150.252 25.5566V27.1387C149.174 27.6074 148.178 27.9238 147.264 28.0879C146.35 28.2637 145.342 28.3516 144.24 28.3516ZM143.73 10.0703C141.891 10.0703 140.414 10.6797 139.301 11.8984C138.188 13.1055 137.537 14.8516 137.35 17.1367H149.162C149.162 14.9219 148.682 13.1934 147.721 11.9512C146.76 10.6973 145.43 10.0703 143.73 10.0703ZM167.883 28L167.443 24.9766H167.303C166.342 26.207 165.352 27.0801 164.332 27.5957C163.324 28.0996 162.129 28.3516 160.746 28.3516C158.871 28.3516 157.412 27.8711 156.369 26.9102C155.326 25.9492 154.805 24.6191 154.805 22.9199C154.805 21.0566 155.578 19.6094 157.125 18.5781C158.684 17.5469 160.934 17.002 163.875 16.9434L167.514 16.8379V15.5723C167.514 13.7559 167.145 12.3848 166.406 11.459C165.668 10.5332 164.479 10.0703 162.838 10.0703C161.068 10.0703 159.234 10.5625 157.336 11.5469L156.686 10.0352C158.783 9.05078 160.857 8.55859 162.908 8.55859C165.006 8.55859 166.57 9.10352 167.602 10.1934C168.645 11.2832 169.166 12.9824 169.166 15.291V28H167.883ZM160.852 26.7695C162.891 26.7695 164.496 26.1895 165.668 25.0293C166.852 23.8574 167.443 22.2344 167.443 20.1602V18.2793L164.104 18.4199C161.42 18.5488 159.504 18.9707 158.355 19.6855C157.219 20.3887 156.65 21.4902 156.65 22.9902C156.65 24.1855 157.014 25.1172 157.74 25.7852C158.479 26.4414 159.516 26.7695 160.852 26.7695ZM182.895 8.52344C183.703 8.52344 184.57 8.60547 185.496 8.76953L185.162 10.4395C184.365 10.2402 183.539 10.1406 182.684 10.1406C181.055 10.1406 179.719 10.832 178.676 12.2148C177.633 13.5977 177.111 15.3438 177.111 17.4531V28H175.371V8.89258H176.848L177.023 12.3379H177.146C177.932 10.9316 178.77 9.94727 179.66 9.38477C180.551 8.81055 181.629 8.52344 182.895 8.52344ZM197.027 28.3516C194.297 28.3516 192.158 27.4902 190.611 25.7676C189.064 24.0449 188.291 21.6426 188.291 18.5605C188.291 15.3965 189.094 12.9355 190.699 11.1777C192.305 9.4082 194.502 8.52344 197.291 8.52344C198.943 8.52344 200.525 8.81055 202.037 9.38477L201.562 10.9316C199.91 10.3809 198.475 10.1055 197.256 10.1055C194.912 10.1055 193.137 10.832 191.93 12.2852C190.723 13.7266 190.119 15.8066 190.119 18.5254C190.119 21.1035 190.723 23.125 191.93 24.5898C193.137 26.043 194.824 26.7695 196.992 26.7695C198.727 26.7695 200.338 26.459 201.826 25.8379V27.4551C200.607 28.0527 199.008 28.3516 197.027 28.3516ZM219.844 28V15.6074C219.844 13.6855 219.439 12.291 218.631 11.4238C217.822 10.5449 216.568 10.1055 214.869 10.1055C212.584 10.1055 210.908 10.6855 209.842 11.8457C208.787 12.9941 208.26 14.8633 208.26 17.4531V28H206.52V0.648438H208.26V9.34961L208.172 11.793H208.295C209.01 10.6445 209.912 9.8125 211.002 9.29688C212.092 8.78125 213.445 8.52344 215.062 8.52344C219.398 8.52344 221.566 10.8496 221.566 15.502V28H219.844Z" fill="white"/>
</svg>
